<svg xmlns="http://www.w3.org/2000/svg" xmlns:xlink="http://www.w3.org/1999/xlink" width="500" zoomAndPan="magnify" viewBox="0 0 375 374.999991" height="500" preserveAspectRatio="xMidYMid meet" version="1.0"><defs><g/><clipPath id="2bee1aa504"><path d="M 137.070312 145.777344 L 239.070312 145.777344 L 239.070312 235.027344 L 137.070312 235.027344 Z M 137.070312 145.777344 " clip-rule="nonzero"/></clipPath></defs><g fill="#403029" fill-opacity="1"><g transform="translate(70.082767, 223.607876)"><g><path d="M -3.375 -11.125 L -0.71875 -2.34375 C -0.675781 -2.238281 -0.679688 -2.128906 -0.734375 -2.015625 C -0.785156 -1.898438 -0.875 -1.828125 -1 -1.796875 L -13.03125 1.84375 C -13.15625 1.882812 -13.269531 1.875 -13.375 1.8125 C -13.476562 1.75 -13.550781 1.664062 -13.59375 1.5625 L -14.109375 -0.1875 C -14.148438 -0.300781 -14.140625 -0.410156 -14.078125 -0.515625 C -14.023438 -0.617188 -13.9375 -0.691406 -13.8125 -0.734375 L -3.9375 -3.71875 L -5.953125 -10.34375 C -5.984375 -10.46875 -5.96875 -10.578125 -5.90625 -10.671875 C -5.851562 -10.773438 -5.769531 -10.84375 -5.65625 -10.875 L -3.921875 -11.40625 C -3.796875 -11.4375 -3.679688 -11.425781 -3.578125 -11.375 C -3.472656 -11.332031 -3.40625 -11.25 -3.375 -11.125 Z M -3.375 -11.125 "/></g></g></g><g fill="#403029" fill-opacity="1"><g transform="translate(65.029145, 205.63662)"><g><path d="M -12.78125 -10.28125 C -12.664062 -10.300781 -12.5625 -10.273438 -12.46875 -10.203125 C -12.375 -10.140625 -12.320312 -10.050781 -12.3125 -9.9375 L -11.265625 -2.75 L -8.59375 -3.125 L -9.546875 -9.640625 C -9.554688 -9.753906 -9.523438 -9.859375 -9.453125 -9.953125 C -9.390625 -10.054688 -9.296875 -10.113281 -9.171875 -10.125 L -7.34375 -10.390625 C -7.226562 -10.410156 -7.125 -10.382812 -7.03125 -10.3125 C -6.9375 -10.238281 -6.882812 -10.144531 -6.875 -10.03125 L -5.921875 -3.515625 L -3.265625 -3.890625 L -4.3125 -11.078125 C -4.320312 -11.191406 -4.289062 -11.296875 -4.21875 -11.390625 C -4.15625 -11.484375 -4.066406 -11.535156 -3.953125 -11.546875 L -2.15625 -11.8125 C -2.03125 -11.832031 -1.914062 -11.804688 -1.8125 -11.734375 C -1.71875 -11.671875 -1.664062 -11.582031 -1.65625 -11.46875 L -0.296875 -2.046875 C -0.273438 -1.921875 -0.300781 -1.8125 -0.375 -1.71875 C -0.445312 -1.632812 -0.546875 -1.582031 -0.671875 -1.5625 L -13.109375 0.234375 C -13.234375 0.242188 -13.34375 0.21875 -13.4375 0.15625 C -13.53125 0.09375 -13.585938 0 -13.609375 -0.125 L -14.96875 -9.546875 C -14.976562 -9.660156 -14.945312 -9.765625 -14.875 -9.859375 C -14.8125 -9.953125 -14.71875 -10.003906 -14.59375 -10.015625 Z M -12.78125 -10.28125 "/></g></g></g><g fill="#403029" fill-opacity="1"><g transform="translate(62.745091, 187.133003)"><g><path d="M -11.078125 -12.09375 C -10.960938 -12.09375 -10.863281 -12.050781 -10.78125 -11.96875 C -10.707031 -11.882812 -10.671875 -11.785156 -10.671875 -11.671875 L -10.734375 -4.40625 L -8.03125 -4.390625 L -7.984375 -10.96875 C -7.972656 -11.082031 -7.925781 -11.179688 -7.84375 -11.265625 C -7.769531 -11.347656 -7.671875 -11.390625 -7.546875 -11.390625 L -5.703125 -11.375 C -5.585938 -11.375 -5.488281 -11.332031 -5.40625 -11.25 C -5.320312 -11.164062 -5.285156 -11.066406 -5.296875 -10.953125 L -5.34375 -4.375 L -2.65625 -4.34375 L -2.59375 -11.609375 C -2.59375 -11.722656 -2.550781 -11.816406 -2.46875 -11.890625 C -2.382812 -11.972656 -2.28125 -12.015625 -2.15625 -12.015625 L -0.34375 -12 C -0.21875 -12 -0.113281 -11.957031 -0.03125 -11.875 C 0.0507812 -11.800781 0.09375 -11.707031 0.09375 -11.59375 L 0.015625 -2.0625 C 0.015625 -1.9375 -0.0234375 -1.832031 -0.109375 -1.75 C -0.191406 -1.675781 -0.296875 -1.640625 -0.421875 -1.640625 L -13 -1.75 C -13.125 -1.75 -13.226562 -1.785156 -13.3125 -1.859375 C -13.394531 -1.941406 -13.4375 -2.046875 -13.4375 -2.171875 L -13.359375 -11.703125 C -13.359375 -11.816406 -13.316406 -11.910156 -13.234375 -11.984375 C -13.148438 -12.066406 -13.046875 -12.109375 -12.921875 -12.109375 Z M -11.078125 -12.09375 "/></g></g></g><g fill="#403029" fill-opacity="1"><g transform="translate(63.269726, 168.496344)"><g/></g></g><g fill="#403029" fill-opacity="1"><g transform="translate(66.593985, 150.154147)"><g><path d="M -5.921875 -12.34375 C -5.953125 -12.226562 -6.023438 -12.144531 -6.140625 -12.09375 C -6.253906 -12.039062 -6.363281 -12.03125 -6.46875 -12.0625 L -6.609375 -12.109375 C -6.816406 -12.171875 -7.015625 -12.15625 -7.203125 -12.0625 C -7.390625 -11.96875 -7.515625 -11.816406 -7.578125 -11.609375 L -8.75 -7.953125 C -8.8125 -7.753906 -8.796875 -7.554688 -8.703125 -7.359375 C -8.609375 -7.171875 -8.457031 -7.046875 -8.25 -6.984375 L -7.15625 -6.640625 C -6.945312 -6.566406 -6.742188 -6.578125 -6.546875 -6.671875 C -6.359375 -6.773438 -6.234375 -6.925781 -6.171875 -7.125 L -5 -10.78125 C -4.863281 -11.226562 -4.644531 -11.625 -4.34375 -11.96875 C -4.039062 -12.3125 -3.691406 -12.582031 -3.296875 -12.78125 C -2.898438 -12.988281 -2.472656 -13.117188 -2.015625 -13.171875 C -1.566406 -13.222656 -1.117188 -13.175781 -0.671875 -13.03125 L 0.421875 -12.6875 C 0.867188 -12.539062 1.265625 -12.3125 1.609375 -12 C 1.960938 -11.695312 2.238281 -11.347656 2.4375 -10.953125 C 2.644531 -10.554688 2.769531 -10.128906 2.8125 -9.671875 C 2.851562 -9.222656 2.804688 -8.773438 2.671875 -8.328125 L 1.5 -4.671875 C 1.351562 -4.222656 1.128906 -3.828125 0.828125 -3.484375 C 0.523438 -3.140625 0.179688 -2.863281 -0.203125 -2.65625 C -0.597656 -2.457031 -1.023438 -2.335938 -1.484375 -2.296875 C -1.953125 -2.253906 -2.410156 -2.304688 -2.859375 -2.453125 L -3 -2.484375 C -3.101562 -2.523438 -3.1875 -2.597656 -3.25 -2.703125 C -3.3125 -2.804688 -3.320312 -2.910156 -3.28125 -3.015625 L -2.734375 -4.765625 C -2.691406 -4.867188 -2.613281 -4.945312 -2.5 -5 C -2.382812 -5.0625 -2.273438 -5.070312 -2.171875 -5.03125 L -2.03125 -5 C -1.820312 -4.925781 -1.625 -4.9375 -1.4375 -5.03125 C -1.25 -5.132812 -1.125 -5.285156 -1.0625 -5.484375 L 0.109375 -9.140625 C 0.171875 -9.347656 0.15625 -9.546875 0.0625 -9.734375 C -0.03125 -9.921875 -0.179688 -10.050781 -0.390625 -10.125 L -1.484375 -10.46875 C -1.691406 -10.53125 -1.890625 -10.515625 -2.078125 -10.421875 C -2.265625 -10.328125 -2.390625 -10.175781 -2.453125 -9.96875 L -3.625 -6.3125 C -3.769531 -5.863281 -3.992188 -5.46875 -4.296875 -5.125 C -4.597656 -4.78125 -4.941406 -4.503906 -5.328125 -4.296875 C -5.722656 -4.097656 -6.148438 -3.976562 -6.609375 -3.9375 C -7.078125 -3.894531 -7.535156 -3.945312 -7.984375 -4.09375 L -9.078125 -4.4375 C -9.523438 -4.582031 -9.921875 -4.804688 -10.265625 -5.109375 C -10.617188 -5.410156 -10.894531 -5.753906 -11.09375 -6.140625 C -11.300781 -6.535156 -11.425781 -6.960938 -11.46875 -7.421875 C -11.507812 -7.878906 -11.457031 -8.332031 -11.3125 -8.78125 L -10.140625 -12.4375 C -10.003906 -12.882812 -9.785156 -13.273438 -9.484375 -13.609375 C -9.179688 -13.953125 -8.832031 -14.226562 -8.4375 -14.4375 C -8.050781 -14.644531 -7.625 -14.769531 -7.15625 -14.8125 C -6.695312 -14.863281 -6.242188 -14.816406 -5.796875 -14.671875 L -5.65625 -14.625 C -5.550781 -14.59375 -5.460938 -14.523438 -5.390625 -14.421875 C -5.328125 -14.328125 -5.316406 -14.21875 -5.359375 -14.09375 Z M -5.921875 -12.34375 "/></g></g></g><g fill="#403029" fill-opacity="1"><g transform="translate(72.643134, 132.498817)"><g><path d="M 2.1875 -4.390625 C 1.976562 -3.972656 1.695312 -3.613281 1.34375 -3.3125 C 1 -3.019531 0.613281 -2.800781 0.1875 -2.65625 C -0.226562 -2.519531 -0.664062 -2.460938 -1.125 -2.484375 C -1.59375 -2.503906 -2.039062 -2.625 -2.46875 -2.84375 L -11.015625 -7.09375 C -11.128906 -7.144531 -11.203125 -7.226562 -11.234375 -7.34375 C -11.273438 -7.457031 -11.269531 -7.5625 -11.21875 -7.65625 L -10.40625 -9.296875 C -10.351562 -9.398438 -10.269531 -9.472656 -10.15625 -9.515625 C -10.039062 -9.554688 -9.925781 -9.550781 -9.8125 -9.5 L -1.265625 -5.25 C -1.066406 -5.144531 -0.863281 -5.128906 -0.65625 -5.203125 C -0.457031 -5.273438 -0.3125 -5.40625 -0.21875 -5.59375 L 1.484375 -9.046875 C 1.578125 -9.234375 1.585938 -9.421875 1.515625 -9.609375 C 1.453125 -9.804688 1.320312 -9.957031 1.125 -10.0625 L -7.421875 -14.3125 C -7.535156 -14.363281 -7.609375 -14.445312 -7.640625 -14.5625 C -7.679688 -14.675781 -7.675781 -14.785156 -7.625 -14.890625 L -6.8125 -16.53125 C -6.75 -16.644531 -6.660156 -16.71875 -6.546875 -16.75 C -6.441406 -16.789062 -6.332031 -16.785156 -6.21875 -16.734375 L 2.328125 -12.484375 C 2.753906 -12.265625 3.113281 -11.976562 3.40625 -11.625 C 3.707031 -11.28125 3.925781 -10.894531 4.0625 -10.46875 C 4.207031 -10.050781 4.265625 -9.613281 4.234375 -9.15625 C 4.210938 -8.695312 4.097656 -8.257812 3.890625 -7.84375 Z M 2.1875 -4.390625 "/></g></g></g><g fill="#403029" fill-opacity="1"><g transform="translate(81.281134, 115.955321)"><g><path d="M -5.1875 -15.265625 C -5.289062 -15.335938 -5.351562 -15.429688 -5.375 -15.546875 C -5.394531 -15.671875 -5.375 -15.78125 -5.3125 -15.875 L -4.25 -17.375 C -4.175781 -17.476562 -4.082031 -17.539062 -3.96875 -17.5625 C -3.851562 -17.582031 -3.742188 -17.554688 -3.640625 -17.484375 L 6.65625 -10.25 C 6.757812 -10.175781 6.820312 -10.082031 6.84375 -9.96875 C 6.863281 -9.851562 6.835938 -9.742188 6.765625 -9.640625 L 5.703125 -8.140625 C 5.640625 -8.046875 5.550781 -7.984375 5.4375 -7.953125 C 5.320312 -7.929688 5.210938 -7.957031 5.109375 -8.03125 L 1.359375 -10.65625 L -5.6875 -9.046875 L 2.015625 -3.640625 C 2.117188 -3.566406 2.175781 -3.46875 2.1875 -3.34375 C 2.207031 -3.226562 2.1875 -3.125 2.125 -3.03125 L 1.078125 -1.53125 C 1.015625 -1.4375 0.921875 -1.378906 0.796875 -1.359375 C 0.679688 -1.335938 0.570312 -1.363281 0.46875 -1.4375 L -9.828125 -8.671875 C -9.929688 -8.742188 -9.988281 -8.835938 -10 -8.953125 C -10.019531 -9.066406 -10 -9.171875 -9.9375 -9.265625 L -8.890625 -10.765625 C -8.828125 -10.859375 -8.726562 -10.945312 -8.59375 -11.03125 C -8.457031 -11.113281 -8.328125 -11.171875 -8.203125 -11.203125 L -1.59375 -12.734375 Z M -5.1875 -15.265625 "/></g></g></g><g fill="#403029" fill-opacity="1"><g transform="translate(92.310408, 100.898623)"><g><path d="M -0.640625 -13.78125 C -0.796875 -13.925781 -0.976562 -13.992188 -1.1875 -13.984375 C -1.40625 -13.984375 -1.585938 -13.910156 -1.734375 -13.765625 L -4.390625 -10.984375 C -4.535156 -10.828125 -4.601562 -10.644531 -4.59375 -10.4375 C -4.59375 -10.226562 -4.515625 -10.050781 -4.359375 -9.90625 L 0.359375 -5.390625 C 0.515625 -5.242188 0.695312 -5.171875 0.90625 -5.171875 C 1.125 -5.171875 1.304688 -5.25 1.453125 -5.40625 L 4.109375 -8.1875 C 4.253906 -8.332031 4.320312 -8.507812 4.3125 -8.71875 C 4.3125 -8.9375 4.234375 -9.117188 4.078125 -9.265625 L 2.6875 -10.59375 L 1.125 -8.953125 C 1.039062 -8.867188 0.941406 -8.828125 0.828125 -8.828125 C 0.710938 -8.828125 0.613281 -8.863281 0.53125 -8.9375 L -0.796875 -10.21875 C -0.890625 -10.300781 -0.9375 -10.398438 -0.9375 -10.515625 C -0.9375 -10.628906 -0.894531 -10.726562 -0.8125 -10.8125 L 2.3125 -14.09375 C 2.394531 -14.1875 2.492188 -14.226562 2.609375 -14.21875 C 2.722656 -14.21875 2.828125 -14.175781 2.921875 -14.09375 L 5.9375 -11.203125 C 6.28125 -10.878906 6.535156 -10.503906 6.703125 -10.078125 C 6.878906 -9.648438 6.972656 -9.210938 6.984375 -8.765625 C 6.992188 -8.328125 6.921875 -7.894531 6.765625 -7.46875 C 6.609375 -7.039062 6.367188 -6.660156 6.046875 -6.328125 L 3.390625 -3.546875 C 3.066406 -3.203125 2.691406 -2.941406 2.265625 -2.765625 C 1.847656 -2.585938 1.414062 -2.492188 0.96875 -2.484375 C 0.519531 -2.484375 0.0820312 -2.5625 -0.34375 -2.71875 C -0.769531 -2.875 -1.15625 -3.113281 -1.5 -3.4375 L -6.21875 -7.953125 C -6.5625 -8.273438 -6.820312 -8.648438 -7 -9.078125 C -7.1875 -9.503906 -7.28125 -9.9375 -7.28125 -10.375 C -7.289062 -10.820312 -7.210938 -11.257812 -7.046875 -11.6875 C -6.890625 -12.113281 -6.648438 -12.5 -6.328125 -12.84375 L -3.671875 -15.625 C -3.347656 -15.957031 -2.976562 -16.210938 -2.5625 -16.390625 C -2.144531 -16.566406 -1.710938 -16.65625 -1.265625 -16.65625 C -0.828125 -16.664062 -0.390625 -16.59375 0.046875 -16.4375 C 0.484375 -16.28125 0.875 -16.039062 1.21875 -15.71875 L 1.328125 -15.609375 C 1.410156 -15.535156 1.453125 -15.441406 1.453125 -15.328125 C 1.460938 -15.210938 1.425781 -15.109375 1.34375 -15.015625 L 0.078125 -13.6875 C -0.00390625 -13.601562 -0.101562 -13.5625 -0.21875 -13.5625 C -0.34375 -13.5625 -0.445312 -13.597656 -0.53125 -13.671875 Z M -0.640625 -13.78125 "/></g></g></g><g fill="#403029" fill-opacity="1"><g transform="translate(105.467453, 87.690248)"><g><path d="M 1.109375 -17.84375 C 1.210938 -17.925781 1.320312 -17.957031 1.4375 -17.9375 C 1.550781 -17.914062 1.648438 -17.859375 1.734375 -17.765625 L 9.40625 -7.796875 C 9.476562 -7.703125 9.507812 -7.597656 9.5 -7.484375 C 9.488281 -7.367188 9.429688 -7.269531 9.328125 -7.1875 L 7.890625 -6.078125 C 7.796875 -6.003906 7.691406 -5.984375 7.578125 -6.015625 C 7.453125 -6.015625 7.351562 -6.0625 7.28125 -6.15625 L 2.171875 -12.78125 L 2.46875 -9.78125 C 2.476562 -9.664062 2.453125 -9.539062 2.390625 -9.40625 C 2.335938 -9.28125 2.265625 -9.179688 2.171875 -9.109375 L 1.484375 -8.578125 C 1.390625 -8.515625 1.273438 -8.460938 1.140625 -8.421875 C 0.992188 -8.410156 0.863281 -8.425781 0.75 -8.46875 L -2.109375 -9.53125 L 3.015625 -2.875 C 3.085938 -2.78125 3.117188 -2.675781 3.109375 -2.5625 C 3.078125 -2.425781 3.019531 -2.328125 2.9375 -2.265625 L 1.484375 -1.140625 C 1.390625 -1.078125 1.289062 -1.054688 1.1875 -1.078125 C 1.0625 -1.085938 0.960938 -1.140625 0.890625 -1.234375 L -6.78125 -11.203125 C -6.863281 -11.296875 -6.894531 -11.40625 -6.875 -11.53125 C -6.875 -11.644531 -6.828125 -11.734375 -6.734375 -11.796875 L -5.28125 -12.921875 L -5.15625 -12.984375 C -5.09375 -13.015625 -5.019531 -13.03125 -4.9375 -13.03125 C -4.789062 -13.050781 -4.664062 -13.039062 -4.5625 -13 L 0.078125 -11.109375 L -0.578125 -16.078125 C -0.585938 -16.191406 -0.566406 -16.3125 -0.515625 -16.4375 L -0.4375 -16.59375 C -0.414062 -16.644531 -0.378906 -16.691406 -0.328125 -16.734375 Z M 1.109375 -17.84375 "/></g></g></g><g fill="#403029" fill-opacity="1"><g transform="translate(120.476735, 76.598622)"><g><path d="M 5.0625 -15.578125 C 5.113281 -15.472656 5.117188 -15.363281 5.078125 -15.25 C 5.035156 -15.144531 4.96875 -15.0625 4.875 -15 L 1.9375 -13.375 L 5.859375 -6.296875 L 8.796875 -7.921875 C 8.890625 -7.984375 8.992188 -8 9.109375 -7.96875 C 9.222656 -7.9375 9.3125 -7.867188 9.375 -7.765625 L 10.25 -6.171875 C 10.3125 -6.066406 10.320312 -5.957031 10.28125 -5.84375 C 10.25 -5.726562 10.1875 -5.640625 10.09375 -5.578125 L 1.890625 -1.046875 C 1.785156 -0.992188 1.671875 -0.976562 1.546875 -1 C 1.429688 -1.03125 1.34375 -1.097656 1.28125 -1.203125 L 0.40625 -2.796875 C 0.34375 -2.898438 0.332031 -3.007812 0.375 -3.125 C 0.414062 -3.25 0.488281 -3.335938 0.59375 -3.390625 L 3.5 -5 L -0.421875 -12.078125 L -3.328125 -10.46875 C -3.429688 -10.414062 -3.539062 -10.398438 -3.65625 -10.421875 C -3.769531 -10.441406 -3.851562 -10.503906 -3.90625 -10.609375 L -4.796875 -12.21875 C -4.859375 -12.320312 -4.867188 -12.429688 -4.828125 -12.546875 C -4.796875 -12.671875 -4.726562 -12.757812 -4.625 -12.8125 L 3.578125 -17.34375 C 3.671875 -17.40625 3.773438 -17.421875 3.890625 -17.390625 C 4.015625 -17.359375 4.109375 -17.289062 4.171875 -17.1875 Z M 5.0625 -15.578125 "/></g></g></g><g fill="#403029" fill-opacity="1"><g transform="translate(136.984662, 67.892845)"><g><path d="M 4.40625 -15.5 C 4.363281 -15.613281 4.363281 -15.722656 4.40625 -15.828125 C 4.457031 -15.941406 4.535156 -16.019531 4.640625 -16.0625 L 6.375 -16.703125 C 6.488281 -16.742188 6.597656 -16.738281 6.703125 -16.6875 C 6.816406 -16.632812 6.894531 -16.550781 6.9375 -16.4375 L 11.296875 -4.640625 C 11.335938 -4.523438 11.332031 -4.414062 11.28125 -4.3125 C 11.238281 -4.207031 11.160156 -4.132812 11.046875 -4.09375 L 9.3125 -3.453125 C 9.207031 -3.410156 9.097656 -3.410156 8.984375 -3.453125 C 8.878906 -3.503906 8.804688 -3.585938 8.765625 -3.703125 L 7.1875 -8 L 0.46875 -10.671875 L 3.734375 -1.84375 C 3.773438 -1.726562 3.769531 -1.613281 3.71875 -1.5 C 3.664062 -1.394531 3.582031 -1.320312 3.46875 -1.28125 L 1.765625 -0.65625 C 1.648438 -0.613281 1.535156 -0.613281 1.421875 -0.65625 C 1.316406 -0.707031 1.242188 -0.789062 1.203125 -0.90625 L -3.15625 -12.703125 C -3.195312 -12.816406 -3.191406 -12.925781 -3.140625 -13.03125 C -3.097656 -13.144531 -3.019531 -13.222656 -2.90625 -13.265625 L -1.203125 -13.890625 C -1.085938 -13.929688 -0.953125 -13.953125 -0.796875 -13.953125 C -0.640625 -13.953125 -0.503906 -13.929688 -0.390625 -13.890625 L 5.921875 -11.390625 Z M 4.40625 -15.5 "/></g></g></g><g fill="#403029" fill-opacity="1"><g transform="translate(154.615799, 61.772544)"><g/></g></g><g fill="#403029" fill-opacity="1"><g transform="translate(172.947348, 58.375589)"><g><path d="M 8.03125 -13.890625 C 8.507812 -13.921875 8.960938 -13.851562 9.390625 -13.6875 C 9.816406 -13.53125 10.195312 -13.300781 10.53125 -13 C 10.863281 -12.707031 11.128906 -12.351562 11.328125 -11.9375 C 11.535156 -11.53125 11.65625 -11.085938 11.6875 -10.609375 L 11.734375 -9.46875 C 11.765625 -9 11.695312 -8.546875 11.53125 -8.109375 C 11.375 -7.671875 11.144531 -7.285156 10.84375 -6.953125 C 10.539062 -6.628906 10.1875 -6.367188 9.78125 -6.171875 C 9.375 -5.972656 8.929688 -5.859375 8.453125 -5.828125 L 3.859375 -5.59375 L 4.125 -0.65625 C 4.125 -0.53125 4.085938 -0.421875 4.015625 -0.328125 C 3.941406 -0.242188 3.84375 -0.195312 3.71875 -0.1875 L 1.875 -0.09375 C 1.757812 -0.09375 1.65625 -0.128906 1.5625 -0.203125 C 1.476562 -0.285156 1.4375 -0.390625 1.4375 -0.515625 L 0.765625 -13.078125 C 0.765625 -13.203125 0.800781 -13.304688 0.875 -13.390625 C 0.957031 -13.484375 1.054688 -13.53125 1.171875 -13.53125 Z M 9 -10.46875 C 8.976562 -10.6875 8.890625 -10.863281 8.734375 -11 C 8.578125 -11.144531 8.390625 -11.210938 8.171875 -11.203125 L 3.578125 -10.96875 L 3.71875 -8.265625 L 8.3125 -8.5 C 8.53125 -8.507812 8.710938 -8.59375 8.859375 -8.75 C 9.003906 -8.914062 9.066406 -9.109375 9.046875 -9.328125 Z M 9 -10.46875 "/></g></g></g><g fill="#403029" fill-opacity="1"><g transform="translate(191.600595, 57.776228)"><g><path d="M 10.03125 -12.515625 C 10.507812 -12.460938 10.945312 -12.320312 11.34375 -12.09375 C 11.738281 -11.875 12.078125 -11.585938 12.359375 -11.234375 C 12.640625 -10.890625 12.847656 -10.503906 12.984375 -10.078125 C 13.128906 -9.648438 13.179688 -9.203125 13.140625 -8.734375 L 12.5 -2.234375 C 12.445312 -1.765625 12.304688 -1.328125 12.078125 -0.921875 C 11.859375 -0.523438 11.578125 -0.1875 11.234375 0.09375 C 10.890625 0.375 10.5 0.582031 10.0625 0.71875 C 9.632812 0.863281 9.179688 0.910156 8.703125 0.859375 L 4.890625 0.484375 C 4.421875 0.441406 3.984375 0.304688 3.578125 0.078125 C 3.171875 -0.140625 2.828125 -0.421875 2.546875 -0.765625 C 2.265625 -1.109375 2.054688 -1.5 1.921875 -1.9375 C 1.785156 -2.375 1.742188 -2.828125 1.796875 -3.296875 L 2.4375 -9.796875 C 2.476562 -10.265625 2.609375 -10.691406 2.828125 -11.078125 C 3.046875 -11.472656 3.328125 -11.8125 3.671875 -12.09375 C 4.015625 -12.382812 4.40625 -12.597656 4.84375 -12.734375 C 5.289062 -12.878906 5.75 -12.929688 6.21875 -12.890625 Z M 10.46875 -9 C 10.488281 -9.21875 10.429688 -9.40625 10.296875 -9.5625 C 10.160156 -9.726562 9.984375 -9.820312 9.765625 -9.84375 L 5.953125 -10.21875 C 5.742188 -10.238281 5.554688 -10.179688 5.390625 -10.046875 C 5.222656 -9.921875 5.128906 -9.75 5.109375 -9.53125 L 4.46875 -3.03125 C 4.445312 -2.8125 4.503906 -2.617188 4.640625 -2.453125 C 4.773438 -2.296875 4.945312 -2.207031 5.15625 -2.1875 L 8.96875 -1.8125 C 9.1875 -1.789062 9.378906 -1.84375 9.546875 -1.96875 C 9.710938 -2.101562 9.804688 -2.28125 9.828125 -2.5 Z M 10.46875 -9 "/></g></g></g><g fill="#403029" fill-opacity="1"><g transform="translate(210.131491, 59.991691)"><g><path d="M 11.734375 2.59375 C 11.765625 2.695312 11.742188 2.78125 11.671875 2.84375 C 11.597656 2.914062 11.507812 2.9375 11.40625 2.90625 L 9.375 2.390625 C 9.25 2.359375 9.144531 2.289062 9.0625 2.1875 C 8.976562 2.082031 8.921875 1.976562 8.890625 1.875 L 7.9375 -3.515625 L 5.359375 -4.171875 L 4.140625 0.609375 C 4.109375 0.722656 4.039062 0.8125 3.9375 0.875 C 3.832031 0.9375 3.722656 0.953125 3.609375 0.921875 L 1.8125 0.46875 C 1.707031 0.4375 1.625 0.367188 1.5625 0.265625 C 1.5 0.160156 1.484375 0.0507812 1.515625 -0.0625 L 4.625 -12.25 C 4.65625 -12.375 4.722656 -12.460938 4.828125 -12.515625 C 4.929688 -12.578125 5.035156 -12.59375 5.140625 -12.5625 L 11.8125 -10.875 C 12.269531 -10.75 12.675781 -10.546875 13.03125 -10.265625 C 13.394531 -9.984375 13.691406 -9.648438 13.921875 -9.265625 C 14.148438 -8.890625 14.300781 -8.476562 14.375 -8.03125 C 14.445312 -7.582031 14.425781 -7.125 14.3125 -6.65625 L 14.03125 -5.546875 C 13.9375 -5.171875 13.78125 -4.820312 13.5625 -4.5 C 13.351562 -4.1875 13.101562 -3.910156 12.8125 -3.671875 C 12.53125 -3.441406 12.210938 -3.265625 11.859375 -3.140625 C 11.515625 -3.023438 11.148438 -2.957031 10.765625 -2.9375 Z M 10.484375 -5.65625 C 10.691406 -5.59375 10.882812 -5.613281 11.0625 -5.71875 C 11.25 -5.832031 11.367188 -5.992188 11.421875 -6.203125 L 11.703125 -7.3125 C 11.753906 -7.519531 11.722656 -7.71875 11.609375 -7.90625 C 11.503906 -8.09375 11.347656 -8.21875 11.140625 -8.28125 L 6.6875 -9.40625 L 6.03125 -6.78125 Z M 10.484375 -5.65625 "/></g></g></g><g fill="#403029" fill-opacity="1"><g transform="translate(228.117697, 64.971489)"><g><path d="M 16.09375 -7.796875 C 16.207031 -7.742188 16.285156 -7.660156 16.328125 -7.546875 C 16.378906 -7.441406 16.378906 -7.332031 16.328125 -7.21875 L 15.609375 -5.515625 C 15.566406 -5.410156 15.488281 -5.335938 15.375 -5.296875 C 15.269531 -5.253906 15.160156 -5.257812 15.046875 -5.3125 L 11.734375 -6.71875 L 7.703125 2.78125 C 7.648438 2.894531 7.566406 2.972656 7.453125 3.015625 C 7.347656 3.066406 7.242188 3.070312 7.140625 3.03125 L 5.4375 2.3125 C 5.320312 2.257812 5.242188 2.175781 5.203125 2.0625 C 5.160156 1.957031 5.164062 1.847656 5.21875 1.734375 L 9.25 -7.765625 L 5.921875 -9.171875 C 5.816406 -9.210938 5.742188 -9.285156 5.703125 -9.390625 C 5.660156 -9.503906 5.660156 -9.613281 5.703125 -9.71875 L 6.421875 -11.421875 C 6.472656 -11.535156 6.550781 -11.613281 6.65625 -11.65625 C 6.757812 -11.695312 6.863281 -11.695312 6.96875 -11.65625 Z M 16.09375 -7.796875 "/></g></g></g><g fill="#403029" fill-opacity="1"><g transform="translate(245.149317, 72.602119)"><g><path d="M 16.265625 -3.109375 C 16.203125 -3.003906 16.113281 -2.941406 16 -2.921875 C 15.882812 -2.898438 15.773438 -2.925781 15.671875 -3 L 9.4375 -6.84375 L 8.03125 -4.53125 L 13.703125 -1.03125 C 13.804688 -0.96875 13.867188 -0.878906 13.890625 -0.765625 C 13.921875 -0.660156 13.898438 -0.550781 13.828125 -0.4375 L 12.875 1.125 C 12.8125 1.21875 12.722656 1.273438 12.609375 1.296875 C 12.492188 1.328125 12.382812 1.3125 12.28125 1.25 L 6.609375 -2.25 L 4.03125 1.953125 C 3.957031 2.054688 3.863281 2.125 3.75 2.15625 C 3.632812 2.1875 3.523438 2.171875 3.421875 2.109375 L 1.84375 1.140625 C 1.75 1.078125 1.6875 0.988281 1.65625 0.875 C 1.625 0.757812 1.644531 0.648438 1.71875 0.546875 L 8.3125 -10.15625 C 8.375 -10.257812 8.460938 -10.328125 8.578125 -10.359375 C 8.703125 -10.390625 8.8125 -10.375 8.90625 -10.3125 L 17.09375 -5.28125 C 17.195312 -5.207031 17.257812 -5.113281 17.28125 -5 C 17.3125 -4.882812 17.296875 -4.773438 17.234375 -4.671875 Z M 16.265625 -3.109375 "/></g></g></g><g fill="#403029" fill-opacity="1"><g transform="translate(260.83815, 82.709683)"><g><path d="M 15.359375 -4.59375 C 15.722656 -4.28125 16.003906 -3.914062 16.203125 -3.5 C 16.410156 -3.09375 16.53125 -2.664062 16.5625 -2.21875 C 16.601562 -1.78125 16.554688 -1.34375 16.421875 -0.90625 C 16.285156 -0.46875 16.066406 -0.0664062 15.765625 0.296875 L 11.546875 5.265625 C 11.242188 5.628906 10.882812 5.910156 10.46875 6.109375 C 10.0625 6.316406 9.632812 6.4375 9.1875 6.46875 C 8.75 6.5 8.3125 6.445312 7.875 6.3125 C 7.4375 6.1875 7.035156 5.96875 6.671875 5.65625 L 3.75 3.1875 C 3.382812 2.875 3.097656 2.507812 2.890625 2.09375 C 2.691406 1.6875 2.570312 1.265625 2.53125 0.828125 C 2.5 0.390625 2.550781 -0.046875 2.6875 -0.484375 C 2.820312 -0.929688 3.039062 -1.335938 3.34375 -1.703125 L 7.5625 -6.671875 C 7.863281 -7.035156 8.21875 -7.316406 8.625 -7.515625 C 9.039062 -7.710938 9.46875 -7.828125 9.90625 -7.859375 C 10.351562 -7.898438 10.796875 -7.851562 11.234375 -7.71875 C 11.671875 -7.59375 12.070312 -7.375 12.4375 -7.0625 Z M 13.71875 -1.453125 C 13.863281 -1.617188 13.925781 -1.804688 13.90625 -2.015625 C 13.882812 -2.222656 13.789062 -2.398438 13.625 -2.546875 L 10.703125 -5.015625 C 10.535156 -5.160156 10.347656 -5.222656 10.140625 -5.203125 C 9.929688 -5.191406 9.753906 -5.101562 9.609375 -4.9375 L 5.390625 0.03125 C 5.242188 0.195312 5.179688 0.382812 5.203125 0.59375 C 5.222656 0.8125 5.316406 0.992188 5.484375 1.140625 L 8.40625 3.609375 C 8.570312 3.753906 8.757812 3.816406 8.96875 3.796875 C 9.175781 3.773438 9.351562 3.679688 9.5 3.515625 Z M 13.71875 -1.453125 "/></g></g></g><g fill="#403029" fill-opacity="1"><g transform="translate(274.826654, 95.06381)"><g><path d="M 7.640625 8.765625 L 1.609375 1.84375 C 1.535156 1.757812 1.5 1.65625 1.5 1.53125 C 1.507812 1.40625 1.5625 1.304688 1.65625 1.234375 L 11.140625 -7.03125 C 11.234375 -7.113281 11.335938 -7.144531 11.453125 -7.125 C 11.578125 -7.113281 11.675781 -7.066406 11.75 -6.984375 L 12.953125 -5.59375 C 13.023438 -5.507812 13.054688 -5.410156 13.046875 -5.296875 C 13.046875 -5.179688 13 -5.082031 12.90625 -5 L 5.125 1.78125 L 9.671875 7 C 9.742188 7.09375 9.773438 7.195312 9.765625 7.3125 C 9.753906 7.425781 9.703125 7.519531 9.609375 7.59375 L 8.234375 8.796875 C 8.140625 8.867188 8.035156 8.90625 7.921875 8.90625 C 7.804688 8.90625 7.710938 8.859375 7.640625 8.765625 Z M 7.640625 8.765625 "/></g></g></g><g fill="#403029" fill-opacity="1"><g transform="translate(286.796003, 109.382938)"><g><path d="M 15.84375 4.125 C 15.738281 4.1875 15.628906 4.195312 15.515625 4.15625 C 15.410156 4.125 15.328125 4.0625 15.265625 3.96875 L 13.46875 1.140625 L 6.640625 5.46875 L 8.4375 8.296875 C 8.5 8.390625 8.519531 8.492188 8.5 8.609375 C 8.476562 8.734375 8.414062 8.832031 8.3125 8.90625 L 6.78125 9.875 C 6.675781 9.9375 6.5625 9.953125 6.4375 9.921875 C 6.320312 9.890625 6.234375 9.828125 6.171875 9.734375 L 1.15625 1.828125 C 1.09375 1.722656 1.070312 1.609375 1.09375 1.484375 C 1.125 1.367188 1.191406 1.28125 1.296875 1.21875 L 2.828125 0.25 C 2.929688 0.175781 3.039062 0.15625 3.15625 0.1875 C 3.269531 0.21875 3.359375 0.285156 3.421875 0.390625 L 5.203125 3.1875 L 12.03125 -1.140625 L 10.25 -3.9375 C 10.1875 -4.039062 10.160156 -4.148438 10.171875 -4.265625 C 10.191406 -4.378906 10.253906 -4.46875 10.359375 -4.53125 L 11.90625 -5.515625 C 12.019531 -5.585938 12.132812 -5.609375 12.25 -5.578125 C 12.363281 -5.546875 12.453125 -5.476562 12.515625 -5.375 L 17.53125 2.53125 C 17.59375 2.625 17.613281 2.726562 17.59375 2.84375 C 17.570312 2.96875 17.503906 3.066406 17.390625 3.140625 Z M 15.84375 4.125 "/></g></g></g><g fill="#403029" fill-opacity="1"><g transform="translate(296.473399, 125.340712)"><g><path d="M 15.8125 2.609375 C 16.007812 3.046875 16.109375 3.488281 16.109375 3.9375 C 16.109375 4.394531 16.023438 4.832031 15.859375 5.25 C 15.703125 5.675781 15.46875 6.054688 15.15625 6.390625 C 14.851562 6.722656 14.488281 6.984375 14.0625 7.171875 L 8.078125 9.796875 C 7.648438 9.984375 7.207031 10.078125 6.75 10.078125 C 6.289062 10.085938 5.851562 10.007812 5.4375 9.84375 C 5.019531 9.675781 4.644531 9.4375 4.3125 9.125 C 3.976562 8.820312 3.710938 8.453125 3.515625 8.015625 L 1.984375 4.5 C 1.785156 4.0625 1.6875 3.613281 1.6875 3.15625 C 1.6875 2.695312 1.765625 2.257812 1.921875 1.84375 C 2.085938 1.4375 2.320312 1.0625 2.625 0.71875 C 2.9375 0.382812 3.304688 0.125 3.734375 -0.0625 L 9.71875 -2.6875 C 10.144531 -2.875 10.585938 -2.96875 11.046875 -2.96875 C 11.503906 -2.96875 11.941406 -2.890625 12.359375 -2.734375 C 12.773438 -2.578125 13.148438 -2.34375 13.484375 -2.03125 C 13.816406 -1.71875 14.082031 -1.34375 14.28125 -0.90625 Z M 12.984375 4.703125 C 13.179688 4.609375 13.316406 4.460938 13.390625 4.265625 C 13.460938 4.078125 13.453125 3.882812 13.359375 3.6875 L 11.828125 0.171875 C 11.734375 -0.0234375 11.585938 -0.160156 11.390625 -0.234375 C 11.203125 -0.316406 11.007812 -0.3125 10.8125 -0.21875 L 4.828125 2.40625 C 4.628906 2.5 4.488281 2.640625 4.40625 2.828125 C 4.332031 3.023438 4.34375 3.222656 4.4375 3.421875 L 5.96875 6.9375 C 6.0625 7.132812 6.207031 7.269531 6.40625 7.34375 C 6.601562 7.425781 6.800781 7.421875 7 7.328125 Z M 12.984375 4.703125 "/></g></g></g><g fill="#403029" fill-opacity="1"><g transform="translate(66.702334, 251.730364)"><g><path d="M 12.609375 -4.34375 C 12.773438 -4.4375 12.898438 -4.398438 12.984375 -4.234375 L 17.296875 3.828125 C 17.378906 3.984375 17.335938 4.109375 17.171875 4.203125 L 16.34375 4.640625 C 16.1875 4.722656 16.066406 4.6875 15.984375 4.53125 L 12.234375 -2.484375 L 8.265625 -0.375 L 11.6875 6.046875 C 11.71875 6.109375 11.722656 6.175781 11.703125 6.25 C 11.679688 6.332031 11.644531 6.390625 11.59375 6.421875 L 10.75 6.875 C 10.6875 6.90625 10.613281 6.90625 10.53125 6.875 C 10.457031 6.851562 10.40625 6.8125 10.375 6.75 L 6.953125 0.328125 L 1.921875 3.015625 C 1.753906 3.097656 1.628906 3.0625 1.546875 2.90625 L 1.109375 2.09375 C 1.023438 1.925781 1.066406 1.800781 1.234375 1.71875 Z M 12.609375 -4.34375 "/></g></g></g><g fill="#403029" fill-opacity="1"><g transform="translate(76.767608, 269.528473)"><g><path d="M 6.1875 7.875 L 9.265625 2.40625 L 6.765625 -0.953125 L 2.1875 2.453125 C 2.039062 2.566406 1.910156 2.550781 1.796875 2.40625 L 1.25 1.671875 C 1.132812 1.515625 1.148438 1.378906 1.296875 1.265625 L 11.640625 -6.4375 C 11.785156 -6.550781 11.914062 -6.53125 12.03125 -6.375 L 16.171875 -0.8125 C 16.410156 -0.5 16.570312 -0.160156 16.65625 0.203125 C 16.738281 0.578125 16.753906 0.945312 16.703125 1.3125 C 16.660156 1.6875 16.539062 2.035156 16.34375 2.359375 C 16.15625 2.691406 15.910156 2.972656 15.609375 3.203125 L 14.203125 4.25 C 13.691406 4.625 13.113281 4.804688 12.46875 4.796875 C 11.832031 4.785156 11.257812 4.59375 10.75 4.21875 L 10.203125 3.796875 L 7.15625 9.171875 C 7.132812 9.242188 7.09375 9.285156 7.03125 9.296875 C 6.96875 9.304688 6.910156 9.273438 6.859375 9.203125 L 6.21875 8.34375 C 6.175781 8.28125 6.148438 8.203125 6.140625 8.109375 C 6.140625 8.015625 6.15625 7.9375 6.1875 7.875 Z M 7.953125 -1.84375 L 11.375 2.765625 C 11.601562 3.066406 11.90625 3.242188 12.28125 3.296875 C 12.664062 3.347656 13.007812 3.265625 13.3125 3.046875 L 14.71875 2 C 15.007812 1.769531 15.179688 1.46875 15.234375 1.09375 C 15.296875 0.71875 15.210938 0.378906 14.984375 0.078125 L 11.5625 -4.53125 Z M 7.953125 -1.84375 "/></g></g></g><g fill="#403029" fill-opacity="1"><g transform="translate(89.397456, 285.608566)"><g><path d="M 3.296875 3.265625 C 3.023438 2.992188 2.816406 2.679688 2.671875 2.328125 C 2.523438 1.972656 2.453125 1.613281 2.453125 1.25 C 2.453125 0.882812 2.523438 0.523438 2.671875 0.171875 C 2.816406 -0.179688 3.023438 -0.492188 3.296875 -0.765625 L 8.71875 -6.28125 C 8.988281 -6.550781 9.296875 -6.757812 9.640625 -6.90625 C 9.992188 -7.050781 10.351562 -7.125 10.71875 -7.125 C 11.082031 -7.125 11.441406 -7.054688 11.796875 -6.921875 C 12.160156 -6.785156 12.476562 -6.582031 12.75 -6.3125 L 15.875 -3.25 C 16.15625 -2.96875 16.363281 -2.648438 16.5 -2.296875 C 16.632812 -1.953125 16.703125 -1.59375 16.703125 -1.21875 C 16.710938 -0.851562 16.648438 -0.488281 16.515625 -0.125 C 16.378906 0.226562 16.175781 0.539062 15.90625 0.8125 L 10.484375 6.328125 C 10.210938 6.597656 9.894531 6.800781 9.53125 6.9375 C 9.175781 7.082031 8.8125 7.148438 8.4375 7.140625 C 8.070312 7.140625 7.710938 7.070312 7.359375 6.9375 C 7.015625 6.8125 6.703125 6.609375 6.421875 6.328125 Z M 11.703125 -5.25 C 11.441406 -5.519531 11.117188 -5.648438 10.734375 -5.640625 C 10.359375 -5.628906 10.035156 -5.492188 9.765625 -5.234375 L 4.34375 0.28125 C 4.070312 0.539062 3.9375 0.859375 3.9375 1.234375 C 3.945312 1.609375 4.082031 1.929688 4.34375 2.203125 L 7.46875 5.265625 C 7.738281 5.535156 8.0625 5.664062 8.4375 5.65625 C 8.8125 5.65625 9.132812 5.523438 9.40625 5.265625 L 14.828125 -0.25 C 15.097656 -0.507812 15.234375 -0.828125 15.234375 -1.203125 C 15.234375 -1.585938 15.097656 -1.914062 14.828125 -2.1875 Z M 11.703125 -5.25 "/></g></g></g><g fill="#403029" fill-opacity="1"><g transform="translate(104.304029, 299.604182)"><g><path d="M 8.578125 5.875 L 11.875 1.328125 L 9.578125 -7.609375 L 2.828125 1.6875 C 2.710938 1.84375 2.578125 1.867188 2.421875 1.765625 L 1.671875 1.21875 C 1.617188 1.175781 1.582031 1.113281 1.5625 1.03125 C 1.539062 0.957031 1.554688 0.882812 1.609375 0.8125 L 9.171875 -9.609375 C 9.222656 -9.679688 9.289062 -9.71875 9.375 -9.71875 C 9.457031 -9.726562 9.523438 -9.710938 9.578125 -9.671875 L 10.640625 -8.90625 C 10.785156 -8.800781 10.878906 -8.660156 10.921875 -8.484375 L 13.046875 -0.28125 L 16.140625 -4.546875 C 16.253906 -4.703125 16.390625 -4.726562 16.546875 -4.625 L 17.296875 -4.078125 C 17.453125 -3.960938 17.472656 -3.828125 17.359375 -3.671875 L 9.796875 6.75 C 9.679688 6.90625 9.546875 6.925781 9.390625 6.8125 L 8.640625 6.265625 C 8.484375 6.160156 8.460938 6.03125 8.578125 5.875 Z M 8.578125 5.875 "/></g></g></g><g fill="#403029" fill-opacity="1"><g transform="translate(121.147571, 311.196303)"><g><path d="M 5.546875 2.546875 L 10.90625 -7.84375 L 7.328125 -9.6875 C 7.160156 -9.769531 7.117188 -9.890625 7.203125 -10.046875 L 7.640625 -10.875 C 7.722656 -11.039062 7.847656 -11.082031 8.015625 -11 L 16.484375 -6.625 C 16.648438 -6.539062 16.691406 -6.414062 16.609375 -6.25 L 16.171875 -5.421875 C 16.085938 -5.265625 15.960938 -5.226562 15.796875 -5.3125 L 12.234375 -7.15625 L 6.875 3.234375 C 6.84375 3.304688 6.785156 3.347656 6.703125 3.359375 C 6.617188 3.378906 6.550781 3.378906 6.5 3.359375 L 5.671875 2.921875 C 5.503906 2.835938 5.460938 2.710938 5.546875 2.546875 Z M 5.546875 2.546875 "/></g></g></g><g fill="#403029" fill-opacity="1"><g transform="translate(139.544015, 320.1238)"><g><path d="M 2.078125 0.40625 L 6.203125 -11.8125 C 6.253906 -11.988281 6.367188 -12.046875 6.546875 -11.984375 L 15.203125 -9.0625 C 15.367188 -9.007812 15.425781 -8.894531 15.375 -8.71875 L 15.078125 -7.828125 C 15.015625 -7.660156 14.898438 -7.601562 14.734375 -7.65625 L 7.203125 -10.203125 L 5.765625 -5.9375 L 12.296875 -3.734375 C 12.359375 -3.710938 12.40625 -3.664062 12.4375 -3.59375 C 12.46875 -3.519531 12.472656 -3.457031 12.453125 -3.40625 L 12.15625 -2.5 C 12.132812 -2.425781 12.085938 -2.375 12.015625 -2.34375 C 11.953125 -2.3125 11.890625 -2.304688 11.828125 -2.328125 L 5.296875 -4.53125 L 3.84375 -0.265625 L 11.375 2.28125 C 11.445312 2.300781 11.5 2.34375 11.53125 2.40625 C 11.5625 2.476562 11.566406 2.546875 11.546875 2.609375 L 11.25 3.5 C 11.1875 3.675781 11.070312 3.738281 10.90625 3.6875 L 2.25 0.765625 C 2.070312 0.703125 2.015625 0.582031 2.078125 0.40625 Z M 2.078125 0.40625 "/></g></g></g><g fill="#403029" fill-opacity="1"><g transform="translate(159.054662, 326.169558)"><g><path d="M 10.28125 1.53125 L 11.265625 -4 L 5.28125 -11.046875 L 3.28125 0.28125 C 3.25 0.46875 3.140625 0.546875 2.953125 0.515625 L 2.03125 0.359375 C 1.96875 0.347656 1.910156 0.3125 1.859375 0.25 C 1.804688 0.1875 1.785156 0.113281 1.796875 0.03125 L 4.03125 -12.65625 C 4.050781 -12.738281 4.097656 -12.800781 4.171875 -12.84375 C 4.242188 -12.882812 4.3125 -12.898438 4.375 -12.890625 L 5.671875 -12.65625 C 5.835938 -12.632812 5.984375 -12.550781 6.109375 -12.40625 L 11.609375 -5.953125 L 12.515625 -11.15625 C 12.554688 -11.34375 12.671875 -11.421875 12.859375 -11.390625 L 13.78125 -11.234375 C 13.957031 -11.203125 14.023438 -11.09375 13.984375 -10.90625 L 11.75 1.78125 C 11.71875 1.96875 11.613281 2.046875 11.4375 2.015625 L 10.515625 1.859375 C 10.328125 1.828125 10.25 1.71875 10.28125 1.53125 Z M 10.28125 1.53125 "/></g></g></g><g fill="#403029" fill-opacity="1"><g transform="translate(179.273359, 329.21696)"><g><path d="M 1.78125 -0.234375 L 2.09375 -13.125 C 2.09375 -13.195312 2.125 -13.257812 2.1875 -13.3125 C 2.25 -13.375 2.3125 -13.40625 2.375 -13.40625 L 9.328125 -13.234375 C 9.722656 -13.234375 10.09375 -13.148438 10.4375 -12.984375 C 10.78125 -12.828125 11.078125 -12.613281 11.328125 -12.34375 C 11.585938 -12.082031 11.789062 -11.773438 11.9375 -11.421875 C 12.082031 -11.066406 12.148438 -10.695312 12.140625 -10.3125 L 11.953125 -2.578125 C 11.941406 -2.191406 11.859375 -1.820312 11.703125 -1.46875 C 11.546875 -1.125 11.332031 -0.828125 11.0625 -0.578125 C 10.789062 -0.328125 10.476562 -0.132812 10.125 0 C 9.78125 0.144531 9.410156 0.21875 9.015625 0.21875 L 2.0625 0.046875 C 2 0.046875 1.9375 0.0195312 1.875 -0.03125 C 1.8125 -0.0820312 1.78125 -0.148438 1.78125 -0.234375 Z M 3.3125 -1.40625 L 9.046875 -1.265625 C 9.429688 -1.265625 9.757812 -1.394531 10.03125 -1.65625 C 10.300781 -1.914062 10.441406 -2.234375 10.453125 -2.609375 L 10.640625 -10.34375 C 10.648438 -10.71875 10.523438 -11.046875 10.265625 -11.328125 C 10.003906 -11.609375 9.679688 -11.75 9.296875 -11.75 L 3.5625 -11.890625 Z M 3.3125 -1.40625 "/></g></g></g><g fill="#403029" fill-opacity="1"><g transform="translate(199.7202, 329.18676)"><g/></g></g><g fill="#403029" fill-opacity="1"><g transform="translate(219.909342, 326.082034)"><g><path d="M 1.9375 -0.84375 L -1.609375 -13.25 C -1.660156 -13.425781 -1.597656 -13.539062 -1.421875 -13.59375 L 7.375 -16.109375 C 7.539062 -16.148438 7.648438 -16.082031 7.703125 -15.90625 L 7.96875 -15 C 8.007812 -14.820312 7.945312 -14.710938 7.78125 -14.671875 L 0.125 -12.484375 L 1.375 -8.171875 L 8 -10.0625 C 8.0625 -10.082031 8.128906 -10.070312 8.203125 -10.03125 C 8.273438 -9.988281 8.316406 -9.9375 8.328125 -9.875 L 8.59375 -8.96875 C 8.613281 -8.894531 8.601562 -8.820312 8.5625 -8.75 C 8.519531 -8.6875 8.46875 -8.644531 8.40625 -8.625 L 1.78125 -6.734375 L 3.015625 -2.40625 L 10.671875 -4.59375 C 10.734375 -4.613281 10.796875 -4.601562 10.859375 -4.5625 C 10.929688 -4.519531 10.976562 -4.46875 11 -4.40625 L 11.25 -3.5 C 11.300781 -3.320312 11.242188 -3.210938 11.078125 -3.171875 L 2.28125 -0.65625 C 2.101562 -0.601562 1.988281 -0.664062 1.9375 -0.84375 Z M 1.9375 -0.84375 "/></g></g></g><g fill="#403029" fill-opacity="1"><g transform="translate(239.402751, 319.977071)"><g><path d="M 7.921875 -7.125 L 3.765625 -8.203125 L 1.84375 -4.34375 C 1.769531 -4.175781 1.773438 -4.003906 1.859375 -3.828125 L 2.875 -1.609375 C 2.945312 -1.441406 2.898438 -1.320312 2.734375 -1.25 L 1.875 -0.859375 C 1.820312 -0.828125 1.753906 -0.820312 1.671875 -0.84375 C 1.597656 -0.863281 1.546875 -0.910156 1.515625 -0.984375 L 0.203125 -3.828125 C 0.171875 -3.898438 0.15625 -3.984375 0.15625 -4.078125 C 0.15625 -4.179688 0.175781 -4.265625 0.21875 -4.328125 L 2.25 -8.421875 L -2.1875 -9.546875 C -2.351562 -9.585938 -2.476562 -9.695312 -2.5625 -9.875 L -3.859375 -12.703125 C -3.890625 -12.773438 -3.890625 -12.847656 -3.859375 -12.921875 C -3.828125 -13.003906 -3.785156 -13.0625 -3.734375 -13.09375 L -2.875 -13.484375 C -2.800781 -13.515625 -2.726562 -13.515625 -2.65625 -13.484375 C -2.582031 -13.453125 -2.53125 -13.398438 -2.5 -13.328125 L -1.46875 -11.09375 C -1.445312 -11.03125 -1.398438 -10.960938 -1.328125 -10.890625 C -1.253906 -10.828125 -1.179688 -10.796875 -1.109375 -10.796875 L 3.0625 -9.71875 L 4.96875 -13.578125 C 5.019531 -13.640625 5.039062 -13.71875 5.03125 -13.8125 C 5.03125 -13.914062 5.019531 -14 5 -14.0625 L 3.96875 -16.296875 C 3.9375 -16.367188 3.929688 -16.441406 3.953125 -16.515625 C 3.972656 -16.585938 4.019531 -16.640625 4.09375 -16.671875 L 4.953125 -17.0625 C 5.015625 -17.09375 5.082031 -17.09375 5.15625 -17.0625 C 5.238281 -17.039062 5.296875 -16.992188 5.328125 -16.921875 L 6.625 -14.09375 C 6.707031 -13.914062 6.703125 -13.742188 6.609375 -13.578125 L 4.609375 -9.5 L 9.015625 -8.359375 C 9.085938 -8.347656 9.160156 -8.3125 9.234375 -8.25 C 9.304688 -8.1875 9.359375 -8.117188 9.390625 -8.046875 L 10.703125 -5.203125 C 10.773438 -5.035156 10.726562 -4.910156 10.5625 -4.828125 L 9.703125 -4.4375 C 9.535156 -4.363281 9.414062 -4.410156 9.34375 -4.578125 L 8.328125 -6.796875 C 8.242188 -6.972656 8.109375 -7.082031 7.921875 -7.125 Z M 7.921875 -7.125 "/></g></g></g><g fill="#403029" fill-opacity="1"><g transform="translate(257.773619, 310.999731)"><g><path d="M 1.328125 -1.21875 L -5.734375 -12 C -5.785156 -12.070312 -5.796875 -12.144531 -5.765625 -12.21875 C -5.742188 -12.289062 -5.707031 -12.34375 -5.65625 -12.375 L 0.15625 -16.1875 C 0.488281 -16.40625 0.835938 -16.546875 1.203125 -16.609375 C 1.578125 -16.679688 1.945312 -16.679688 2.3125 -16.609375 C 2.675781 -16.535156 3.015625 -16.390625 3.328125 -16.171875 C 3.648438 -15.960938 3.914062 -15.695312 4.125 -15.375 L 5.09375 -13.90625 C 5.300781 -13.570312 5.4375 -13.21875 5.5 -12.84375 C 5.570312 -12.476562 5.566406 -12.113281 5.484375 -11.75 C 5.398438 -11.394531 5.253906 -11.054688 5.046875 -10.734375 C 4.847656 -10.421875 4.582031 -10.15625 4.25 -9.9375 L -0.53125 -6.796875 L 2.59375 -2.03125 C 2.695312 -1.875 2.671875 -1.742188 2.515625 -1.640625 L 1.71875 -1.125 C 1.664062 -1.09375 1.597656 -1.082031 1.515625 -1.09375 C 1.441406 -1.101562 1.378906 -1.144531 1.328125 -1.21875 Z M -1.34375 -8.046875 L 3.4375 -11.1875 C 3.757812 -11.40625 3.957031 -11.695312 4.03125 -12.0625 C 4.101562 -12.4375 4.039062 -12.78125 3.84375 -13.09375 L 2.875 -14.5625 C 2.664062 -14.875 2.375 -15.066406 2 -15.140625 C 1.632812 -15.222656 1.289062 -15.15625 0.96875 -14.9375 L -3.8125 -11.796875 Z M -1.34375 -8.046875 "/></g></g></g><g fill="#403029" fill-opacity="1"><g transform="translate(274.583756, 299.35921)"><g><path d="M -7.046875 -11.75 L -6.359375 -12.375 C -6.222656 -12.488281 -6.09375 -12.472656 -5.96875 -12.328125 L 1.84375 -3.640625 L 7.546875 -8.765625 C 7.609375 -8.828125 7.675781 -8.847656 7.75 -8.828125 C 7.832031 -8.816406 7.894531 -8.789062 7.9375 -8.75 L 8.5625 -8.046875 C 8.6875 -7.910156 8.675781 -7.78125 8.53125 -7.65625 L 1.9375 -1.734375 C 1.875 -1.679688 1.800781 -1.65625 1.71875 -1.65625 C 1.644531 -1.65625 1.582031 -1.6875 1.53125 -1.75 L -7.078125 -11.34375 C -7.140625 -11.40625 -7.164062 -11.472656 -7.15625 -11.546875 C -7.144531 -11.628906 -7.109375 -11.695312 -7.046875 -11.75 Z M -7.046875 -11.75 "/></g></g></g><g fill="#403029" fill-opacity="1"><g transform="translate(289.449972, 285.320761)"><g><path d="M -4.890625 -15.25 C -4.835938 -15.300781 -4.765625 -15.335938 -4.671875 -15.359375 C -4.585938 -15.378906 -4.515625 -15.382812 -4.453125 -15.375 L 2.546875 -13.140625 C 2.609375 -13.117188 2.6875 -13.082031 2.78125 -13.03125 C 2.875 -12.976562 2.953125 -12.921875 3.015625 -12.859375 L 7.3125 -9.328125 C 7.457031 -9.210938 7.472656 -9.085938 7.359375 -8.953125 L 6.78125 -8.25 C 6.65625 -8.101562 6.519531 -8.085938 6.375 -8.203125 L 3.578125 -10.515625 L -0.9375 -5.015625 L 1.859375 -2.703125 C 2.003906 -2.585938 2.019531 -2.457031 1.90625 -2.3125 L 1.3125 -1.59375 C 1.1875 -1.445312 1.050781 -1.429688 0.90625 -1.546875 L -3.390625 -5.078125 C -3.453125 -5.140625 -3.515625 -5.207031 -3.578125 -5.28125 C -3.648438 -5.363281 -3.703125 -5.4375 -3.734375 -5.5 L -7.28125 -11.953125 C -7.300781 -11.992188 -7.304688 -12.0625 -7.296875 -12.15625 C -7.296875 -12.257812 -7.269531 -12.335938 -7.21875 -12.390625 Z M 2.4375 -11.4375 L 2.078125 -11.734375 L -4.203125 -13.71875 L -5.625 -12.015625 L -2.4375 -6.234375 L -2.078125 -5.9375 Z M 2.4375 -11.4375 "/></g></g></g><g fill="#403029" fill-opacity="1"><g transform="translate(302.033505, 269.204405)"><g><path d="M 5.078125 -9.0625 L 0.234375 -11.9375 L -8.453125 -8.84375 L 1.4375 -2.953125 C 1.59375 -2.859375 1.625 -2.734375 1.53125 -2.578125 L 1.0625 -1.765625 C 1.019531 -1.710938 0.957031 -1.671875 0.875 -1.640625 C 0.800781 -1.617188 0.734375 -1.628906 0.671875 -1.671875 L -10.40625 -8.265625 C -10.476562 -8.304688 -10.519531 -8.363281 -10.53125 -8.4375 C -10.550781 -8.519531 -10.539062 -8.585938 -10.5 -8.640625 L -9.84375 -9.78125 C -9.75 -9.925781 -9.613281 -10.035156 -9.4375 -10.109375 L -1.46875 -12.953125 L -6 -15.65625 C -6.164062 -15.75 -6.203125 -15.878906 -6.109375 -16.046875 L -5.625 -16.84375 C -5.53125 -17.007812 -5.398438 -17.046875 -5.234375 -16.953125 L 5.84375 -10.359375 C 6 -10.265625 6.03125 -10.132812 5.9375 -9.96875 L 5.453125 -9.171875 C 5.359375 -9.003906 5.234375 -8.96875 5.078125 -9.0625 Z M 5.078125 -9.0625 "/></g></g></g><g fill="#403029" fill-opacity="1"><g transform="translate(312.047542, 251.377416)"><g><path d="M -9.203125 -13.09375 C -9.179688 -13.164062 -9.128906 -13.222656 -9.046875 -13.265625 C -8.960938 -13.316406 -8.890625 -13.34375 -8.828125 -13.34375 L -1.484375 -13.3125 C -1.410156 -13.300781 -1.320312 -13.285156 -1.21875 -13.265625 C -1.113281 -13.242188 -1.023438 -13.21875 -0.953125 -13.1875 L 4.203125 -11.09375 C 4.378906 -11.019531 4.429688 -10.898438 4.359375 -10.734375 L 4.015625 -9.890625 C 3.941406 -9.710938 3.816406 -9.660156 3.640625 -9.734375 L 0.28125 -11.09375 L -2.390625 -4.515625 L 0.96875 -3.15625 C 1.144531 -3.082031 1.195312 -2.957031 1.125 -2.78125 L 0.78125 -1.90625 C 0.707031 -1.738281 0.582031 -1.691406 0.40625 -1.765625 L -4.75 -3.859375 C -4.820312 -3.890625 -4.898438 -3.929688 -4.984375 -3.984375 C -5.078125 -4.035156 -5.148438 -4.085938 -5.203125 -4.140625 L -10.5 -9.234375 C -10.539062 -9.273438 -10.570312 -9.34375 -10.59375 -9.4375 C -10.625 -9.53125 -10.625 -9.613281 -10.59375 -9.6875 Z M -1.078125 -11.640625 L -1.515625 -11.828125 L -8.109375 -11.859375 L -8.9375 -9.796875 L -4.1875 -5.25 L -3.75 -5.0625 Z M -1.078125 -11.640625 "/></g></g></g><g fill="#403029" fill-opacity="1"><g transform="translate(319.263854, 232.246062)"><g><path d="M 1.140625 -5.984375 L -10.21875 -8.703125 L -11.15625 -4.796875 C -11.195312 -4.617188 -11.304688 -4.550781 -11.484375 -4.59375 L -12.390625 -4.8125 C -12.566406 -4.851562 -12.632812 -4.960938 -12.59375 -5.140625 L -10.375 -14.421875 C -10.332031 -14.597656 -10.222656 -14.664062 -10.046875 -14.625 L -9.140625 -14.40625 C -8.960938 -14.363281 -8.894531 -14.253906 -8.9375 -14.078125 L -9.875 -10.171875 L 1.484375 -7.453125 C 1.566406 -7.429688 1.625 -7.382812 1.65625 -7.3125 C 1.695312 -7.238281 1.710938 -7.171875 1.703125 -7.109375 L 1.484375 -6.203125 C 1.441406 -6.015625 1.328125 -5.941406 1.140625 -5.984375 Z M 1.140625 -5.984375 "/></g></g></g><g fill="#403029" fill-opacity="1"><g transform="translate(323.51791, 212.246449)"><g><path d="M -0.109375 -2.09375 L -1.046875 -2.171875 C -1.109375 -2.171875 -1.164062 -2.195312 -1.21875 -2.25 C -1.269531 -2.3125 -1.296875 -2.375 -1.296875 -2.4375 L -0.96875 -6.203125 L -11.40625 -7.078125 L -11.734375 -3.3125 C -11.742188 -3.144531 -11.835938 -3.066406 -12.015625 -3.078125 L -12.953125 -3.15625 C -13.140625 -3.175781 -13.226562 -3.269531 -13.21875 -3.4375 L -12.46875 -12.40625 C -12.445312 -12.59375 -12.34375 -12.675781 -12.15625 -12.65625 L -11.21875 -12.578125 C -11.039062 -12.566406 -10.960938 -12.46875 -10.984375 -12.28125 L -11.28125 -8.5625 L -0.84375 -7.6875 L -0.546875 -11.40625 C -0.535156 -11.488281 -0.5 -11.550781 -0.4375 -11.59375 C -0.375 -11.644531 -0.3125 -11.671875 -0.25 -11.671875 L 0.6875 -11.59375 C 0.875 -11.570312 0.957031 -11.46875 0.9375 -11.28125 L 0.1875 -2.3125 C 0.175781 -2.144531 0.078125 -2.070312 -0.109375 -2.09375 Z M -0.109375 -2.09375 "/></g></g></g><g fill="#403029" fill-opacity="1"><g transform="translate(324.712854, 191.834332)"><g><path d="M -0.3125 -4.625 C -0.289062 -4.238281 -0.34375 -3.867188 -0.46875 -3.515625 C -0.59375 -3.160156 -0.773438 -2.847656 -1.015625 -2.578125 C -1.253906 -2.304688 -1.546875 -2.082031 -1.890625 -1.90625 C -2.234375 -1.726562 -2.597656 -1.628906 -2.984375 -1.609375 L -10.6875 -1.078125 C -11.070312 -1.054688 -11.441406 -1.109375 -11.796875 -1.234375 C -12.160156 -1.359375 -12.476562 -1.539062 -12.75 -1.78125 C -13.03125 -2.019531 -13.257812 -2.304688 -13.4375 -2.640625 C -13.613281 -2.972656 -13.710938 -3.332031 -13.734375 -3.71875 L -14.03125 -8.09375 C -14.0625 -8.488281 -14.007812 -8.859375 -13.875 -9.203125 C -13.75 -9.554688 -13.5625 -9.875 -13.3125 -10.15625 C -13.070312 -10.4375 -12.78125 -10.664062 -12.4375 -10.84375 C -12.101562 -11.019531 -11.742188 -11.117188 -11.359375 -11.140625 L -3.65625 -11.671875 C -3.269531 -11.691406 -2.894531 -11.640625 -2.53125 -11.515625 C -2.164062 -11.390625 -1.847656 -11.203125 -1.578125 -10.953125 C -1.304688 -10.703125 -1.082031 -10.410156 -0.90625 -10.078125 C -0.738281 -9.753906 -0.640625 -9.394531 -0.609375 -9 Z M -12.25 -3.8125 C -12.226562 -3.4375 -12.070312 -3.128906 -11.78125 -2.890625 C -11.488281 -2.648438 -11.15625 -2.539062 -10.78125 -2.5625 L -3.078125 -3.09375 C -2.703125 -3.113281 -2.390625 -3.265625 -2.140625 -3.546875 C -1.890625 -3.828125 -1.773438 -4.15625 -1.796875 -4.53125 L -2.09375 -8.90625 C -2.113281 -9.289062 -2.269531 -9.601562 -2.5625 -9.84375 C -2.851562 -10.082031 -3.1875 -10.191406 -3.5625 -10.171875 L -11.265625 -9.640625 C -11.640625 -9.617188 -11.953125 -9.46875 -12.203125 -9.1875 C -12.453125 -8.90625 -12.566406 -8.570312 -12.546875 -8.1875 Z M -12.25 -3.8125 "/></g></g></g><g fill="#403029" fill-opacity="1"><g transform="translate(322.821397, 171.474939)"><g><path d="M -2.53125 -10.078125 L -8.015625 -8.859375 L -12.21875 -0.640625 L -1 -3.140625 C -0.8125 -3.179688 -0.695312 -3.109375 -0.65625 -2.921875 L -0.453125 -2.015625 C -0.429688 -1.953125 -0.441406 -1.882812 -0.484375 -1.8125 C -0.523438 -1.738281 -0.585938 -1.691406 -0.671875 -1.671875 L -13.25 1.125 C -13.332031 1.144531 -13.398438 1.128906 -13.453125 1.078125 C -13.515625 1.023438 -13.554688 0.96875 -13.578125 0.90625 L -13.859375 -0.375 C -13.898438 -0.539062 -13.882812 -0.710938 -13.8125 -0.890625 L -9.953125 -8.421875 L -15.109375 -7.28125 C -15.285156 -7.238281 -15.394531 -7.3125 -15.4375 -7.5 L -15.640625 -8.40625 C -15.679688 -8.59375 -15.613281 -8.707031 -15.4375 -8.75 L -2.859375 -11.546875 C -2.671875 -11.585938 -2.554688 -11.515625 -2.515625 -11.328125 L -2.3125 -10.421875 C -2.269531 -10.234375 -2.34375 -10.117188 -2.53125 -10.078125 Z M -2.53125 -10.078125 "/></g></g></g><g clip-path="url(#2bee1aa504)"><path fill="#403029" d="M 141.855469 190.519531 L 165.007812 213.667969 L 162.609375 216.066406 L 137.070312 190.519531 L 162.621094 164.96875 L 165.019531 167.367188 Z M 196.15625 145.800781 L 199.347656 146.605469 L 180.179688 235.226562 L 176.988281 234.421875 Z M 213.71875 164.96875 L 239.269531 190.519531 L 213.71875 216.066406 L 211.320312 213.667969 L 234.472656 190.519531 L 211.320312 167.367188 Z M 213.71875 164.96875 " fill-opacity="1" fill-rule="nonzero"/></g></svg>